<svg xmlns="http://www.w3.org/2000/svg" width="384" height="384" viewBox="0 0 384 384">
  <defs>
    <linearGradient id="bg" x1="0" y1="0" x2="1" y2="1">
      <stop offset="0%" stop-color="#19191d"/>
      <stop offset="100%" stop-color="#2d2d35"/>
    </linearGradient>
  </defs>
  <!-- Background -->
  <rect width="384" height="384" rx="69" fill="url(#bg)"/>
  <!-- Clock circle -->
  <circle cx="192" cy="192" r="146" fill="none" stroke="#f02e65" stroke-width="15"/>
  <!-- Hour hand -->
  <line x1="192" y1="192" x2="192" y2="119" stroke="#ffffff" stroke-width="13" stroke-linecap="round"/>
  <!-- Minute hand -->
  <line x1="192" y1="192" x2="243.1" y2="140.9" stroke="#ffffff" stroke-width="10" stroke-linecap="round"/>
  <!-- Center dot -->
  <circle cx="192" cy="192" r="12" fill="#f02e65"/>
  <!-- Hour marks -->
    <line x1="192.0" y1="61.4" x2="192.0" y2="84.4" stroke="#8a8a9a" stroke-width="6" stroke-linecap="round"/>
  <line x1="257.3" y1="78.9" x2="245.8" y2="98.8" stroke="#8a8a9a" stroke-width="6" stroke-linecap="round"/>
  <line x1="305.1" y1="126.7" x2="285.2" y2="138.2" stroke="#8a8a9a" stroke-width="6" stroke-linecap="round"/>
  <line x1="322.6" y1="192.0" x2="299.6" y2="192.0" stroke="#8a8a9a" stroke-width="6" stroke-linecap="round"/>
  <line x1="305.1" y1="257.3" x2="285.2" y2="245.8" stroke="#8a8a9a" stroke-width="6" stroke-linecap="round"/>
  <line x1="257.3" y1="305.1" x2="245.8" y2="285.2" stroke="#8a8a9a" stroke-width="6" stroke-linecap="round"/>
  <line x1="192.0" y1="322.6" x2="192.0" y2="299.6" stroke="#8a8a9a" stroke-width="6" stroke-linecap="round"/>
  <line x1="126.7" y1="305.1" x2="138.2" y2="285.2" stroke="#8a8a9a" stroke-width="6" stroke-linecap="round"/>
  <line x1="78.9" y1="257.3" x2="98.8" y2="245.8" stroke="#8a8a9a" stroke-width="6" stroke-linecap="round"/>
  <line x1="61.4" y1="192.0" x2="84.4" y2="192.0" stroke="#8a8a9a" stroke-width="6" stroke-linecap="round"/>
  <line x1="78.9" y1="126.7" x2="98.8" y2="138.2" stroke="#8a8a9a" stroke-width="6" stroke-linecap="round"/>
  <line x1="126.7" y1="78.9" x2="138.2" y2="98.8" stroke="#8a8a9a" stroke-width="6" stroke-linecap="round"/>
  <!-- "C" letter -->
  <text x="192" y="365.6" text-anchor="middle" font-family="Inter, Arial, sans-serif" font-weight="700" font-size="46" fill="#f02e65" opacity="0.9">C</text>
</svg>