<svg xmlns="http://www.w3.org/2000/svg" width="512" height="512" viewBox="0 0 512 512">
  <defs>
    <linearGradient id="bg" x1="0" y1="0" x2="1" y2="1">
      <stop offset="0%" stop-color="#19191d"/>
      <stop offset="100%" stop-color="#2d2d35"/>
    </linearGradient>
  </defs>
  <!-- Background -->
  <rect width="512" height="512" rx="92" fill="url(#bg)"/>
  <!-- Clock circle -->
  <circle cx="256" cy="256" r="195" fill="none" stroke="#f02e65" stroke-width="20"/>
  <!-- Hour hand -->
  <line x1="256" y1="256" x2="256" y2="158.5" stroke="#ffffff" stroke-width="18" stroke-linecap="round"/>
  <!-- Minute hand -->
  <line x1="256" y1="256" x2="324.25" y2="187.75" stroke="#ffffff" stroke-width="13" stroke-linecap="round"/>
  <!-- Center dot -->
  <circle cx="256" cy="256" r="15" fill="#f02e65"/>
  <!-- Hour marks -->
    <line x1="256.0" y1="81.5" x2="256.0" y2="112.2" stroke="#8a8a9a" stroke-width="8" stroke-linecap="round"/>
  <line x1="343.3" y1="104.9" x2="327.9" y2="131.5" stroke="#8a8a9a" stroke-width="8" stroke-linecap="round"/>
  <line x1="407.1" y1="168.7" x2="380.5" y2="184.1" stroke="#8a8a9a" stroke-width="8" stroke-linecap="round"/>
  <line x1="430.5" y1="256.0" x2="399.8" y2="256.0" stroke="#8a8a9a" stroke-width="8" stroke-linecap="round"/>
  <line x1="407.1" y1="343.3" x2="380.5" y2="327.9" stroke="#8a8a9a" stroke-width="8" stroke-linecap="round"/>
  <line x1="343.3" y1="407.1" x2="327.9" y2="380.5" stroke="#8a8a9a" stroke-width="8" stroke-linecap="round"/>
  <line x1="256.0" y1="430.5" x2="256.0" y2="399.8" stroke="#8a8a9a" stroke-width="8" stroke-linecap="round"/>
  <line x1="168.7" y1="407.1" x2="184.1" y2="380.5" stroke="#8a8a9a" stroke-width="8" stroke-linecap="round"/>
  <line x1="104.9" y1="343.3" x2="131.5" y2="327.9" stroke="#8a8a9a" stroke-width="8" stroke-linecap="round"/>
  <line x1="81.5" y1="256.0" x2="112.2" y2="256.0" stroke="#8a8a9a" stroke-width="8" stroke-linecap="round"/>
  <line x1="104.9" y1="168.7" x2="131.5" y2="184.1" stroke="#8a8a9a" stroke-width="8" stroke-linecap="round"/>
  <line x1="168.7" y1="104.9" x2="184.1" y2="131.5" stroke="#8a8a9a" stroke-width="8" stroke-linecap="round"/>
  <!-- "C" letter -->
  <text x="256" y="487.6" text-anchor="middle" font-family="Inter, Arial, sans-serif" font-weight="700" font-size="61" fill="#f02e65" opacity="0.9">C</text>
</svg>